<svg version="1.1" id="Layer_1" xmlns="http://www.w3.org/2000/svg" x="0" y="0" viewBox="0 0 204.5 71.3" style="enable-background:new 0 0 204.5 71.3" xml:space="preserve"><style>.st0{fill:#711471}.st1{fill:#469fa6}</style><path class="st0" d="M5.9 57.5V33.1H0V24h5.9V3.3h10.6V24H29v9.1H16.5v22.7c0 4.1 2.1 5.8 5.7 5.8 2.4 0 4.5-.5 6.6-1.6v8.7c-2.6 1.5-5.5 2.4-9.6 2.4-7.8 0-13.3-3.4-13.3-13.6M39.9 24h10.6v46.3H39.9zM61.8 24h10.6v10.4c2.9-6.9 8.3-11.7 16.4-11.3v11.2h-.6c-9.3 0-15.8 6.1-15.8 18.3v17.6H61.8V24zM179 47.2V47c0-9-6.3-14.8-13.4-14.8-7.3 0-13.3 5.6-13.3 14.8v.2c0 9 6.1 14.8 13.3 14.8 7.1 0 13.4-5.9 13.4-14.8m-37.5 0V47c0-15.4 10.4-24 21.5-24 7.6 0 12.5 3.8 15.8 8.2v-28h10.6v67.1h-10.6v-7.7c-3.4 4.8-8.3 8.7-15.8 8.7-10.9 0-21.5-8.7-21.5-24.1M116.1 62.6c-6.8 0-12.2-4.2-13.3-11.7 0 0-.4-2.7-.4-4.5 0-1.8.7-4.7.7-4.7 1.5-6 5.8-9.9 11.5-9.9 7 0 11 5.3 11.7 12.2 0 0 .1 1.4.2 3.1 3.3-1 7.1-4.1 9.6-5.6-2.1-10.3-9.3-18.3-21.5-18.3C101.4 23.2 92 34 92 47.3v.2c0 14.3 10.3 24 23.7 24 8.5 0 14.5-3.4 18.9-8.7l-6.2-5.5c-3.4 3.4-7.1 5.3-12.3 5.3z"/><path class="st1" d="M25.7.3h3.7L33.6 7 37.8.3h3.7v15.8H38V5.8l-4.4 6.7h-.1l-4.4-6.7V16h-3.4V.3zM44.5 8.2C44.5 3.7 48.1 0 53 0s8.4 3.6 8.4 8.1-3.5 8.2-8.4 8.2-8.5-3.6-8.5-8.1zm13.2 0c0-2.8-2-5-4.8-5s-4.7 2.2-4.7 4.9 2 5 4.8 5 4.7-2.2 4.7-4.9zM64.4.3h7.2c2 0 3.6.6 4.6 1.6.9.9 1.4 2.1 1.4 3.6 0 2.5-1.4 4.2-3.4 4.9l3.9 5.6H74l-3.4-5h-2.7v5.1h-3.5V.3zm7 7.6c1.7 0 2.7-.9 2.7-2.2 0-1.5-1-2.3-2.7-2.3h-3.5v4.5h3.5zM80.7.3h11.9v3.1h-8.5v3.2h7.4v3.1h-7.4V13h8.6v3.1h-12V.3zM108.8 3.5H104V.3h13.1v3.2h-4.8v12.6h-3.5V3.5zM120.8.3h3.5v6.2h6.4V.3h3.5v15.8h-3.5V9.7h-6.4V16h-3.5V.3zM143.4.2h3.2l6.8 15.9h-3.6l-1.4-3.5h-6.7l-1.4 3.5h-3.5L143.4.2zm3.6 9.3-2.1-5.1-2.1 5.1h4.2zM155.8.3h3.2l7.4 9.7V.3h3.4v15.8h-3l-7.6-10v10h-3.4V.3zM137.4 41.3c-.5-.6-2.6.9-3 1.2-3.4 2.3-6.6 4.2-10.4 4.6-4.3.5-7.8-.6-10.7-3.5 0 0-1.9-2.3-1.9-2.4-.3-.4-1.1.3-1.3.5-.6.5-1.2.9-1.8 1.4-1.4 1.1-2.6 2.4-3.6 3.9-.2.3-.3.4-.5.9-.2.6.1 1.4 1 1.5.6.1 1.3-1.1 1.6-1.5 1.2-1.3 2.4-2.7 4-3.6l.8.7-.8 1.3c-.7 1.1-1.4 2.1-2.1 3.2-.2.4-.7.9-.6 1.4 0 .4.6 1.1 1.1 1 .5 0 1.2-1 1.5-1.4.5-.6.9-1.2 1.3-1.9s.9-1.4 1.4-2.1l1.1.7c-.1.2-.1.3-.2.4l-.5 1c-.4.8-.8 1.7-1.2 2.5-.2.5-.4 1-.4 1.7 0 .5.6 1 1.1 1 .5 0 .8-.7.9-1.1.3-.5.5-1.1.8-1.6.1-.3 1.5-3 1.6-3 .4.1.8.3 1.1.4.2.8 0 1.5-.2 2.3-.2.6-.2 1.3-.4 1.9-.1.6 0 1.6.4 1.8 1 .4 1.4-1 1.6-1.6l.6-2.1c.1-.6.2-1.2.5-1.8l1.2.1-.1.9c-.1.9-.1 1.7-.2 2.5s.1 2 1.1 2c.8 0 1-.9 1.1-1.5 0-.5.1-.9.1-1.4 0-.2.2-2.7.3-2.7.6-.1 1.1-.2 1.6-.2.3.5.4 1 .5 1.6.1.8.7 3.5 1.9 3.2.8-.2.4-1.3.4-1.9 0-.7-.2-1.3-.3-2l-.3-1.5h.1c.2-.1.5-.2.7-.2.4.5.7 1.1.9 1.7.2.5.4 1 .7 1.5.5.8 2.2 1.2 1.9-.3-.3-1.2-.9-2.3-1.3-3.4-.1-.1-.1-.2-.2-.4l.6-.3 1.1 1.1c.4.4 1 1.4 1.7 1.3 1.2-.2 0-1.8-.2-2.2-.2-.4-.4-.9-.6-1.3l.4-.3c.8-.6 1.7-1.2 2.4-2 .4 0 2-1.4 1.7-2z"/><path class="st0" d="M194.4 4.2h-1.9v-1h5v1h-1.9v5.1h-1.1V4.2zM198.5 3.2h1.1l1.9 2.9 1.9-2.9h1.1v6.1h-1.1V4.9l-1.9 2.9-1.9-2.8v4.4h-1.1V3.2z"/></svg>