<svg xmlns="http://www.w3.org/2000/svg" xmlns:xlink="http://www.w3.org/1999/xlink" width="2014.286" height="1740"><defs><linearGradient id="b"><stop style="stop-color:#fff;stop-opacity:1" offset="0"/><stop style="stop-color:#fff;stop-opacity:0" offset="1"/></linearGradient><linearGradient id="a"><stop style="stop-color:#fff;stop-opacity:.52821569" offset="0"/><stop style="stop-color:#fff;stop-opacity:0" offset="1"/></linearGradient><linearGradient xlink:href="#a" id="l" gradientUnits="userSpaceOnUse" x1="2269.123" y1="119.496" x2="2028.707" y2="159.902"/><linearGradient xlink:href="#a" id="d" gradientUnits="userSpaceOnUse" x1="2269.123" y1="119.496" x2="2028.707" y2="159.902"/><linearGradient xlink:href="#a" id="e" gradientUnits="userSpaceOnUse" x1="2269.123" y1="119.496" x2="2028.707" y2="159.902"/><linearGradient xlink:href="#a" id="n" gradientUnits="userSpaceOnUse" x1="2269.123" y1="119.496" x2="2028.707" y2="159.902"/><linearGradient xlink:href="#a" id="f" gradientUnits="userSpaceOnUse" x1="2269.123" y1="119.496" x2="2028.707" y2="159.902"/><linearGradient xlink:href="#a" id="g" gradientUnits="userSpaceOnUse" x1="2269.123" y1="119.496" x2="2028.707" y2="159.902"/><linearGradient xlink:href="#a" id="h" gradientUnits="userSpaceOnUse" x1="2269.123" y1="119.496" x2="2028.707" y2="159.902"/><linearGradient xlink:href="#a" id="i" gradientUnits="userSpaceOnUse" x1="2269.123" y1="119.496" x2="2028.707" y2="159.902"/><linearGradient xlink:href="#a" id="j" gradientUnits="userSpaceOnUse" x1="2269.123" y1="119.496" x2="2028.707" y2="159.902"/><linearGradient xlink:href="#a" id="k" gradientUnits="userSpaceOnUse" x1="2269.123" y1="119.496" x2="2028.707" y2="159.902"/><linearGradient xlink:href="#a" id="m" gradientUnits="userSpaceOnUse" x1="2269.123" y1="119.496" x2="2028.707" y2="159.902"/><linearGradient xlink:href="#a" id="o" gradientUnits="userSpaceOnUse" x1="2269.123" y1="119.496" x2="2028.707" y2="159.902"/><filter id="c" width="1.201" y="-.1" x="-.1" height="1.201" style="color-interpolation-filters:sRGB"><feGaussianBlur stdDeviation="10.714"/></filter></defs><g style="fill:#1e90ff"><path d="M1630.43-141.352h240l8 234c-83.415-15.342-168.28-19.084-256 0z" style="fill:#000;fill-rule:evenodd;filter:url(#c)" transform="translate(-1308.837 1038.772)"/><path style="fill-rule:evenodd;stroke:none;stroke-width:2" d="M2020.431-52.235h256v256h-256z" transform="translate(-1708.858 921.594)"/><path style="fill:url(#d);fill-opacity:1;fill-rule:evenodd;stroke:url(#radialGradient4311);stroke-width:2" d="M2020.431-52.235h256v256h-256z" transform="translate(-1708.858 921.594)"/></g><g style="fill:#ff0"><path d="M1630.43-141.352h240l8 234c-83.415-15.342-168.28-19.084-256 0z" style="fill:#000;fill-rule:evenodd;filter:url(#c)" transform="translate(-640.266 610.2)"/><path style="fill-rule:evenodd;stroke:none;stroke-width:2" d="M2020.431-52.235h256v256h-256z" transform="translate(-1040.286 493.023)"/><path style="fill:url(#e);fill-opacity:1;fill-rule:evenodd;stroke:url(#radialGradient4325);stroke-width:2" d="M2020.431-52.235h256v256h-256z" transform="translate(-1040.286 493.023)"/></g><g style="fill:#00bfff"><path d="M1630.43-141.352h240l8 234c-83.415-15.342-168.28-19.084-256 0z" style="fill:#000;fill-rule:evenodd;filter:url(#c)" transform="translate(-708.837 358.772)"/><path style="fill-rule:evenodd;stroke:none;stroke-width:2" d="M2020.431-52.235h256v256h-256z" transform="translate(-1108.858 241.594)"/><path style="fill:url(#f);fill-opacity:1;fill-rule:evenodd;stroke:url(#radialGradient4353);stroke-width:2" d="M2020.431-52.235h256v256h-256z" transform="translate(-1108.858 241.594)"/></g><g style="fill:#ff4500"><path d="M1630.43-141.352h240l8 234c-83.415-15.342-168.28-19.084-256 0z" style="fill:#000;fill-rule:evenodd;filter:url(#c)" transform="translate(-183.123 398.772)"/><path style="fill-rule:evenodd;stroke:none;stroke-width:2" d="M2020.431-52.235h256v256h-256z" transform="translate(-583.143 281.594)"/><path style="fill:url(#g);fill-opacity:1;fill-rule:evenodd;stroke:url(#radialGradient4367);stroke-width:2" d="M2020.431-52.235h256v256h-256z" transform="translate(-583.143 281.594)"/></g><g style="fill:#ff0"><path d="M1630.43-141.352h240l8 234c-83.415-15.342-168.28-19.084-256 0z" style="fill:#000;fill-rule:evenodd;filter:url(#c)" transform="translate(-131.694 1118.772)"/><path style="fill-rule:evenodd;stroke:none;stroke-width:2" d="M2020.431-52.235h256v256h-256z" transform="translate(-531.715 1001.594)"/><path style="fill:url(#h);fill-opacity:1;fill-rule:evenodd;stroke:url(#radialGradient4381);stroke-width:2" d="M2020.431-52.235h256v256h-256z" transform="translate(-531.715 1001.594)"/></g><g style="fill:red"><path d="M1630.43-141.352h240l8 234c-83.415-15.342-168.28-19.084-256 0z" style="fill:#000;fill-rule:evenodd;filter:url(#c)" transform="translate(-1417.409 730.2)"/><path style="fill-rule:evenodd;stroke:none;stroke-width:2" d="M2020.431-52.235h256v256h-256z" transform="translate(-1817.429 613.023)"/><path style="fill:url(#i);fill-opacity:1;fill-rule:evenodd;stroke:url(#radialGradient4395);stroke-width:2" d="M2020.431-52.235h256v256h-256z" transform="translate(-1817.429 613.023)"/></g><g style="fill:red"><path d="M1630.43-141.352h240l8 234c-83.415-15.342-168.28-19.084-256 0z" style="fill:#000;fill-rule:evenodd;filter:url(#c)" transform="translate(-171.694 1473.058)"/><path style="fill-rule:evenodd;stroke:none;stroke-width:2" d="M2020.431-52.235h256v256h-256z" transform="translate(-571.715 1355.88)"/><path style="fill:url(#j);fill-opacity:1;fill-rule:evenodd;stroke:url(#radialGradient4409);stroke-width:2" d="M2020.431-52.235h256v256h-256z" transform="translate(-571.715 1355.88)"/></g><g style="fill:#0f0"><path d="M1630.43-141.352h240l8 234c-83.415-15.342-168.28-19.084-256 0z" style="fill:#000;fill-rule:evenodd;filter:url(#c)" transform="translate(-114.551 604.486)"/><path style="fill-rule:evenodd;stroke:none;stroke-width:2" d="M2020.431-52.235h256v256h-256z" transform="translate(-514.572 487.309)"/><path style="fill:url(#k);fill-opacity:1;fill-rule:evenodd;stroke:url(#radialGradient4423);stroke-width:2" d="M2020.431-52.235h256v256h-256z" transform="translate(-514.572 487.309)"/></g><g style="fill:red"><path d="M1630.43-141.352h240l8 234c-83.415-15.342-168.28-19.084-256 0z" style="fill:#000;fill-rule:evenodd;filter:url(#c)" transform="translate(-1411.694 1370.2)"/><path style="fill-rule:evenodd;stroke:none;stroke-width:2" d="M2020.431-52.235h256v256h-256z" transform="translate(-1811.715 1253.023)"/><path style="fill:url(#l);fill-opacity:1;fill-rule:evenodd;stroke:url(#radialGradient4297);stroke-width:2" d="M2020.431-52.235h256v256h-256z" transform="translate(-1811.715 1253.023)"/></g><g style="fill:teal"><path d="M1630.43-141.352h240l8 234c-83.415-15.342-168.28-19.084-256 0z" style="fill:#000;fill-rule:evenodd;filter:url(#c)" transform="translate(-106.148 908.557)"/><path style="fill-rule:evenodd;stroke:none;stroke-width:2" d="M2020.431-52.235h256v256h-256z" transform="translate(-506.168 791.38)"/><path style="fill:url(#m);fill-opacity:1;fill-rule:evenodd;stroke:url(#radialGradient4437);stroke-width:2" d="M2020.431-52.235h256v256h-256z" transform="translate(-506.168 791.38)"/></g><path style="fill:none;fill-rule:evenodd;stroke:#000;stroke-width:2;stroke-linecap:butt;stroke-linejoin:miter;stroke-opacity:1" d="M2448.671-1144.92v1720M3072.48-1144.92v1720M3696.29-1144.92v1720M1824.861-1144.92v1720" transform="translate(-1752.004 1154.92)"/><g style="fill:#ff0"><path d="M1630.43-141.352h240l8 234c-83.415-15.342-168.28-19.084-256 0z" style="fill:#000;fill-rule:evenodd;filter:url(#c)" transform="translate(-1291.694 404.486)"/><path style="fill-rule:evenodd;stroke:none;stroke-width:2" d="M2020.431-52.235h256v256h-256z" transform="translate(-1691.715 287.309)"/><path style="fill:url(#n);fill-opacity:1;fill-rule:evenodd;stroke:url(#radialGradient4339);stroke-width:2" d="M2020.431-52.235h256v256h-256z" transform="translate(-1691.715 287.309)"/></g><path style="fill:none;fill-rule:evenodd;stroke:#000;stroke-width:1px;stroke-linecap:butt;stroke-linejoin:miter;stroke-opacity:1" d="M1762.004-999.206H3756.29" transform="translate(-1752.004 1154.92)"/><g style="fill:#ff0"><path style="fill:#000;fill-rule:evenodd;filter:url(#c)" d="M1630.43-141.352h240l8 234c-83.415-15.342-168.28-19.084-256 0z" transform="translate(-834.551 855.915)"/><path style="fill-rule:evenodd;stroke:none;stroke-width:2" d="M2020.431-52.235h256v256h-256z" transform="translate(-1234.572 738.737)"/><path style="fill:url(#o);fill-opacity:1;fill-rule:evenodd;stroke:url(#radialGradient4451);stroke-width:2" d="M2020.431-52.235h256v256h-256z" transform="translate(-1234.572 738.737)"/></g></svg>