<?xml version="1.0" encoding="utf-8"?>
<!-- Generator: Adobe Illustrator 22.1.0, SVG Export Plug-In . SVG Version: 6.00 Build 0)  -->
<svg version="1.1" id="Layer_1" xmlns="http://www.w3.org/2000/svg" xmlns:xlink="http://www.w3.org/1999/xlink" x="0px" y="0px"
	 viewBox="0 0 204.5 71.3" style="enable-background:new 0 0 204.5 71.3;" xml:space="preserve">
<style type="text/css">
	.st0{fill:#711471;}
	.st1{fill:#469FA6;}
</style>
<g>
	<path class="st0" d="M5.9,57.5V33.1H0V24h5.9l0-20.7h10.6l0,20.7H29v9.1H16.5v22.7c0,4.1,2.1,5.8,5.7,5.8c2.4,0,4.5-0.5,6.6-1.6
		v8.7c-2.6,1.5-5.5,2.4-9.6,2.4C11.4,71.1,5.9,67.7,5.9,57.5"/>
	<rect x="39.9" y="24" class="st0" width="10.6" height="46.3"/>
	<path class="st0" d="M61.8,24h10.6v10.4c2.9-6.9,8.3-11.7,16.4-11.3v11.2h-0.6c-9.3,0-15.8,6.1-15.8,18.3v17.6H61.8V24z"/>
	<path class="st0" d="M179,47.2V47c0-9-6.3-14.8-13.4-14.8c-7.3,0-13.3,5.6-13.3,14.8v0.2c0,9,6.1,14.8,13.3,14.8
		C172.7,62,179,56.1,179,47.2 M141.5,47.2V47c0-15.4,10.4-24,21.5-24c7.6,0,12.5,3.8,15.8,8.2V3.2h10.6v67.1h-10.6v-7.7
		c-3.4,4.8-8.3,8.7-15.8,8.7C152.1,71.3,141.5,62.6,141.5,47.2"/>
	<path class="st0" d="M116.1,62.6c-6.8,0-12.2-4.2-13.3-11.7c0,0-0.4-2.7-0.4-4.5c0-1.8,0.7-4.7,0.7-4.7l0,0c1.5-6,5.8-9.9,11.5-9.9
		c7,0,11,5.3,11.7,12.2c0,0,0.1,1.4,0.2,3.1c3.3-1,7.1-4.1,9.6-5.6c-2.1-10.3-9.3-18.3-21.5-18.3c-13.2,0-22.6,10.8-22.6,24.1v0.2
		c0,14.3,10.3,24,23.7,24c8.5,0,14.5-3.4,18.9-8.7l-6.2-5.5C125,60.7,121.3,62.6,116.1,62.6z"/>
</g>
<g>
	<g>
		<path class="st1" d="M25.7,0.3h3.7l4.2,6.7l4.2-6.7h3.7v15.8H38V5.8l-4.4,6.7h-0.1l-4.4-6.7v10.2h-3.4V0.3z"/>
		<path class="st1" d="M44.5,8.2L44.5,8.2C44.5,3.7,48.1,0,53,0s8.4,3.6,8.4,8.1v0c0,4.5-3.5,8.2-8.4,8.2S44.5,12.7,44.5,8.2z
			 M57.7,8.2L57.7,8.2c0-2.8-2-5-4.8-5s-4.7,2.2-4.7,4.9v0c0,2.7,2,5,4.8,5C55.8,13.1,57.7,10.9,57.7,8.2z"/>
		<path class="st1" d="M64.4,0.3h7.2c2,0,3.6,0.6,4.6,1.6c0.9,0.9,1.4,2.1,1.4,3.6v0c0,2.5-1.4,4.2-3.4,4.9l3.9,5.6H74L70.6,11h0
			h-2.7v5.1h-3.5V0.3z M71.4,7.9c1.7,0,2.7-0.9,2.7-2.2v0c0-1.5-1-2.3-2.7-2.3h-3.5v4.5H71.4z"/>
		<path class="st1" d="M80.7,0.3h11.9v3.1h-8.5v3.2h7.4v3.1h-7.4V13h8.6v3.1h-12V0.3z"/>
	</g>
	<g>
		<path class="st1" d="M108.8,3.5H104V0.3h13.1v3.2h-4.8v12.6h-3.5V3.5z"/>
		<g>
			<path class="st1" d="M120.8,0.3h3.5v6.2h6.4V0.3h3.5v15.8h-3.5V9.7h-6.4v6.3h-3.5V0.3z"/>
			<path class="st1" d="M143.4,0.2h3.2l6.8,15.9h-3.6l-1.4-3.5h-6.7l-1.4,3.5h-3.5L143.4,0.2z M147,9.5l-2.1-5.1l-2.1,5.1H147z"/>
		</g>
		<g>
			<path class="st1" d="M155.8,0.3h3.2l7.4,9.7V0.3h3.4v15.8h-3l-7.6-10v10h-3.4V0.3z"/>
		</g>
	</g>
</g>
<path class="st1" d="M137.4,41.3C137.4,41.3,137.4,41.3,137.4,41.3c-0.5-0.6-2.6,0.9-3,1.2c-3.4,2.3-6.6,4.2-10.4,4.6
	c-4.3,0.5-7.8-0.6-10.7-3.5c0,0-1.9-2.3-1.9-2.4c-0.3-0.4-1.1,0.3-1.3,0.5c-0.6,0.5-1.2,0.9-1.8,1.4c-1.4,1.1-2.6,2.4-3.6,3.9
	c-0.2,0.3-0.3,0.4-0.5,0.9c-0.2,0.6,0.1,1.4,1,1.5c0.6,0.1,1.3-1.1,1.6-1.5c1.2-1.3,2.4-2.7,4-3.6l0.8,0.7l-0.8,1.3
	c-0.7,1.1-1.4,2.1-2.1,3.2c-0.2,0.4-0.7,0.9-0.6,1.4c0,0.4,0.6,1.1,1.1,1c0.5,0,1.2-1,1.5-1.4c0.5-0.6,0.9-1.2,1.3-1.9
	c0.4-0.7,0.9-1.4,1.4-2.1l1.1,0.7c-0.1,0.2-0.1,0.3-0.2,0.4l-0.5,1c-0.4,0.8-0.8,1.7-1.2,2.5c-0.2,0.5-0.4,1-0.4,1.7
	c0,0.5,0.6,1,1.1,1c0.5,0,0.8-0.7,0.9-1.1c0.3-0.5,0.5-1.1,0.8-1.6c0.1-0.3,1.5-3,1.6-3c0.4,0.1,0.8,0.3,1.1,0.4
	c0.2,0.8,0,1.5-0.2,2.3c-0.2,0.6-0.2,1.3-0.4,1.9c-0.1,0.6,0,1.6,0.4,1.8c1,0.4,1.4-1,1.6-1.6c0.2-0.7,0.4-1.4,0.6-2.1
	c0.1-0.6,0.2-1.2,0.5-1.8l1.2,0.1l-0.1,0.9c-0.1,0.9-0.1,1.7-0.2,2.5c-0.1,0.8,0.1,2,1.1,2c0.8,0,1-0.9,1.1-1.5
	c0-0.5,0.1-0.9,0.1-1.4c0-0.2,0.2-2.7,0.3-2.7c0.6-0.1,1.1-0.2,1.6-0.2c0.3,0.5,0.4,1,0.5,1.6c0.1,0.8,0.7,3.5,1.9,3.2
	c0.8-0.2,0.4-1.3,0.4-1.9c0-0.7-0.2-1.3-0.3-2c-0.1-0.5-0.2-1-0.3-1.5l0.1,0c0.2-0.1,0.5-0.2,0.7-0.2c0.4,0.5,0.7,1.1,0.9,1.7
	c0.2,0.5,0.4,1,0.7,1.5c0.5,0.8,2.2,1.2,1.9-0.3c-0.3-1.2-0.9-2.3-1.3-3.4c-0.1-0.1-0.1-0.2-0.2-0.4l0.6-0.3
	c0.4,0.4,0.7,0.7,1.1,1.1c0.4,0.4,1,1.4,1.7,1.3c1.2-0.2,0-1.8-0.2-2.2c-0.2-0.4-0.4-0.9-0.6-1.3l0.4-0.3c0.8-0.6,1.7-1.2,2.4-2
	C136.1,43.3,137.7,41.9,137.4,41.3z"/>
<g>
	<path class="st0" d="M194.4,4.2h-1.9v-1h5v1h-1.9v5.1h-1.1V4.2z"/>
	<path class="st0" d="M198.5,3.2h1.1l1.9,2.9l1.9-2.9h1.1v6.1h-1.1V4.9l-1.9,2.9h0L199.6,5v4.4h-1.1V3.2z"/>
</g>
</svg>
